<svg width="109" height="71" viewBox="0 0 109 71" fill="none" xmlns="http://www.w3.org/2000/svg">
<path d="M33.9453 49.4967C30.831 49.4967 27.7946 48.4802 25.3032 46.6035C25.1475 46.5253 25.0696 46.3689 24.9918 46.2126C24.1353 44.6487 23.5903 42.8502 23.5903 41.0518C23.5903 37.4549 25.4589 34.6399 28.7289 33.3106C27.8725 32.0595 27.4053 30.5738 27.4053 29.0881C27.4053 25.1784 30.286 21.9725 33.8675 21.9725C37.4489 21.9725 40.3296 25.1784 40.3296 29.0881C40.3296 30.652 39.8625 32.1377 39.006 33.3106C42.276 34.7181 44.1446 37.4549 44.1446 41.0518C44.1446 42.8502 43.6775 44.6487 42.7432 46.2126C42.6653 46.3689 42.5875 46.4471 42.4318 46.6035C40.096 48.4802 37.0596 49.4967 33.9453 49.4967ZM26.8603 44.8051C28.9625 46.2908 31.376 47.0727 33.9453 47.0727C36.5146 47.0727 38.9282 46.2908 41.0303 44.8051C41.6532 43.6322 41.9646 42.3811 41.9646 41.0518C41.9646 36.8293 38.7725 35.4218 36.826 34.9526C36.3589 34.8745 36.0475 34.4835 35.9696 34.0925C35.8918 33.6234 36.0475 33.2324 36.3589 32.9196C37.4489 32.0595 38.1496 30.5738 38.1496 29.0099C38.1496 26.4295 36.281 24.2401 34.0232 24.2401C31.7653 24.2401 29.8968 26.3513 29.8968 29.0099C29.8968 30.5738 30.5196 31.9813 31.6875 32.9196C31.9989 33.2324 32.1546 33.6234 32.0768 34.0925C31.9989 34.5617 31.6096 34.8745 31.2203 34.9526C29.2739 35.4218 26.0818 36.8293 26.0818 41.0518C25.926 42.3811 26.2375 43.7104 26.8603 44.8051Z" fill="#0285C9"/>
<path d="M86.0319 61.304H22.9676C16.5055 61.304 11.2891 56.065 11.2891 49.5749V44.7269C11.2891 44.1013 11.8341 43.554 12.4569 43.554C13.0798 43.554 13.6248 44.1013 13.6248 44.7269V49.5749C13.6248 54.7357 17.8291 58.9581 22.9676 58.9581H86.0319C91.1705 58.9581 95.3748 54.7357 95.3748 49.5749V44.7269C95.3748 44.1013 95.9198 43.554 96.5426 43.554C97.1655 43.554 97.7105 44.1013 97.7105 44.7269V49.5749C97.7105 56.065 92.4941 61.304 86.0319 61.304Z" fill="#415B9C"/>
<path d="M96.5426 28.3062C95.9198 28.3062 95.3748 27.7588 95.3748 27.1333V21.4251C95.3748 16.2643 91.1705 12.0419 86.0319 12.0419H22.9676C17.8291 12.0419 13.6248 16.2643 13.6248 21.4251V27.1333C13.6248 27.7588 13.0798 28.3062 12.4569 28.3062C11.8341 28.3062 11.2891 27.7588 11.2891 27.1333V21.4251C11.2891 14.935 16.5055 9.69604 22.9676 9.69604H86.0319C92.4941 9.69604 97.7105 14.935 97.7105 21.4251V27.1333C97.7105 27.837 97.1655 28.3062 96.5426 28.3062Z" fill="#415B9C"/>
<path d="M83.3847 28.3062H53.1762C52.5533 28.3062 52.0083 27.7588 52.0083 27.1333C52.0083 26.5077 52.5533 25.9604 53.1762 25.9604H83.3847C84.0076 25.9604 84.5526 26.5077 84.5526 27.1333C84.5526 27.7588 84.0854 28.3062 83.3847 28.3062Z" fill="#CED3DB"/>
<path d="M82.5284 36.6729H53.6434C53.0206 36.6729 52.4756 36.1255 52.4756 35.5C52.4756 34.8744 53.0206 34.3271 53.6434 34.3271H82.5284C83.1513 34.3271 83.6963 34.8744 83.6963 35.5C83.6963 36.1255 83.1513 36.6729 82.5284 36.6729Z" fill="#CED3DB"/>
<path d="M75.5213 45.5088H53.6434C53.0206 45.5088 52.4756 44.9615 52.4756 44.3359C52.4756 43.7104 53.0206 43.163 53.6434 43.163H75.5213C76.1441 43.163 76.6891 43.7104 76.6891 44.3359C76.6891 44.9615 76.1441 45.5088 75.5213 45.5088Z" fill="#CED3DB"/>
<path d="M2.33545 16.3425C2.33545 16.9681 2.88045 17.5154 3.50331 17.5154C4.12616 17.5154 4.67116 16.9681 4.67116 16.3425C4.67116 15.717 4.67116 12.8238 4.67116 12.8238C4.67116 12.1982 4.12616 11.6509 3.50331 11.6509C2.88045 11.6509 2.33545 12.1982 2.33545 12.8238V16.3425Z" fill="#CED3DB"/>
<path d="M1.71278 13.3712C1.08992 13.3712 0.544922 13.9185 0.544922 14.5441C0.544922 15.1696 1.08992 15.717 1.71278 15.717C2.33564 15.717 5.29421 15.717 5.29421 15.717C5.91706 15.717 6.46206 15.1696 6.46206 14.5441C6.46206 13.9185 5.91706 13.3712 5.29421 13.3712H1.71278Z" fill="#CED3DB"/>
<path d="M16.9728 2.50219C17.5956 2.50219 18.1406 1.95483 18.1406 1.32928C18.1406 0.703729 17.5956 0.156372 16.9728 0.156372C16.3499 0.156372 8.9535 0.156372 8.9535 0.156372C8.33064 0.156372 7.78564 0.703729 7.78564 1.32928C7.78564 1.95483 8.33064 2.50219 8.9535 2.50219H16.9728Z" fill="#CED3DB"/>
<path d="M106.431 58.5672C107.443 58.5672 108.222 57.7852 108.222 56.8469C108.222 55.9086 107.443 55.1266 106.431 55.1266C105.419 55.1266 104.64 55.9086 104.64 56.8469C104.64 57.7852 105.497 58.5672 106.431 58.5672Z" fill="#CED3DB"/>
<path d="M86.6552 68.4977C86.0323 68.4977 85.4873 69.0451 85.4873 69.6707C85.4873 70.2962 86.6552 70.8436 86.6552 70.8436H88.6016C89.2245 70.8436 89.7695 70.2962 89.7695 69.6707C89.7695 69.0451 89.2245 68.4977 88.6016 68.4977H86.6552Z" fill="#CED3DB"/>
<path d="M92.8837 68.4977C92.2608 68.4977 91.7158 69.0451 91.7158 69.6707C91.7158 70.2962 92.2608 70.8436 92.8837 70.8436C93.5065 70.8436 100.903 70.8436 100.903 70.8436C101.526 70.8436 102.071 70.2962 102.071 69.6707C102.071 69.0451 101.526 68.4977 100.903 68.4977H92.8837Z" fill="#CED3DB"/>
</svg>
