<svg width="140" height="91" viewBox="0 0 140 91" fill="none" xmlns="http://www.w3.org/2000/svg">
<path d="M66.4998 88.1938H53.7998" stroke="#415B9C" stroke-width="3" stroke-miterlimit="10" stroke-linecap="round" stroke-linejoin="round"/>
<path d="M86.2 89.6971H74.5C73.7 89.6971 73 88.9956 73 88.1938C73 87.3921 73.7 86.6905 74.5 86.6905H86.2C89.4 86.6905 92 84.0848 92 80.8777V10.1222C92 6.91519 89.4 4.30946 86.2 4.30946H53.8C50.6 4.40968 48 7.01541 48 10.1222V80.8777C48 84.0848 50.6 86.6905 53.8 86.6905C54.6 86.6905 55.3 87.3921 55.3 88.1938C55.3 88.9956 54.6 89.6971 53.8 89.6971C49 89.6971 45 85.7885 45 80.8777V10.1222C45 5.31167 48.9 1.30286 53.8 1.30286H86.2C91 1.30286 95 5.21145 95 10.1222V80.8777C95 85.6883 91.1 89.6971 86.2 89.6971Z" fill="#415B9C"/>
<path d="M70.5 82.5815C67.5 82.5815 65 80.076 65 77.0694C65 74.0628 67.5 71.5573 70.5 71.5573C73.5 71.5573 76 74.0628 76 77.0694C76 80.076 73.5 82.5815 70.5 82.5815ZM70.5 74.5639C69.1 74.5639 68 75.6663 68 77.0694C68 78.4725 69.1 79.5749 70.5 79.5749C71.9 79.5749 73 78.4725 73 77.0694C73 75.6663 71.9 74.5639 70.5 74.5639Z" fill="#CED3DB"/>
<path d="M68.9001 49.5088C66.9001 49.3083 64.9001 48.2059 63.6001 46.2015L66.3001 44.0969C66.9001 44.9989 67.8001 45.6002 68.8001 45.9008V42.0925C66.2001 41.5914 63.7001 40.2885 63.7001 36.5804C63.9001 33.7742 66.1001 32.0704 68.8001 31.6696V30.066H71.1001V31.5693C73.0001 31.7698 74.7001 32.772 75.9001 34.576L72.9001 36.5804C72.4001 35.7786 71.8001 35.3777 71.0001 35.0771V38.7852C73.8001 39.3865 76.3001 40.6894 76.1001 44.4978C75.9001 47.3039 73.6001 49.0077 71.0001 49.4086V51.0121H68.7001V49.5088H68.9001ZM67.5001 36.6806C67.5001 37.5826 68.1001 37.9834 68.9001 38.2841V35.1773C68.1001 35.3777 67.6001 35.8788 67.5001 36.6806ZM71.2001 42.4934V45.9008C72.0001 45.7004 72.6001 45.0991 72.7001 44.1971C72.8001 43.2951 72.1001 42.794 71.2001 42.4934Z" fill="#0285C9"/>
<path d="M85.5 64.5418C85.2 64.5418 84.9 64.4416 84.6 64.2412L80.3 60.9339L76 64.2412C75.5 64.642 74.7 64.642 74.2 64.2412L70 61.0341L65.7 64.3414C65.2 64.7423 64.4 64.7423 63.9 64.3414L59.6 61.0341L55.3 64.3414C54.8 64.642 54.2 64.7423 53.7 64.5418C53.3 64.1409 53 63.6398 53 63.0385V17.9394C53 17.1376 53.7 16.4361 54.5 16.4361H85.5C86.3 16.4361 87 17.1376 87 17.9394V63.0385C87 63.6398 86.7 64.1409 86.2 64.3414C86 64.5418 85.7 64.5418 85.5 64.5418ZM70 57.6266C70.3 57.6266 70.6 57.7269 70.9 57.9273L75.2 61.2346L79.5 57.9273C80 57.5264 80.8 57.5264 81.3 57.9273L84.1 60.0319V19.4427H56V60.0319L58.8 57.9273C59.3 57.5264 60.1 57.5264 60.6 57.9273L64.9 61.2346L69.2 57.9273C69.4 57.7269 69.7 57.6266 70 57.6266Z" fill="#415B9C"/>
<path d="M19.9995 59.0298C19.9995 59.8315 20.6995 60.5331 21.4995 60.5331C22.2995 60.5331 22.9995 59.8315 22.9995 59.0298C22.9995 58.228 22.9995 54.5198 22.9995 54.5198C22.9995 53.7181 22.2995 53.0165 21.4995 53.0165C20.6995 53.0165 19.9995 53.7181 19.9995 54.5198V59.0298Z" fill="#CED3DB"/>
<path d="M19.1997 55.2214C18.3997 55.2214 17.6997 55.9229 17.6997 56.7247C17.6997 57.5264 18.3997 58.228 19.1997 58.228C19.9997 58.228 23.7997 58.228 23.7997 58.228C24.5997 58.228 25.2997 57.5264 25.2997 56.7247C25.2997 55.9229 24.5997 55.2214 23.7997 55.2214H19.1997Z" fill="#CED3DB"/>
<path d="M108 22.9505C108 23.7522 108.7 24.4538 109.5 24.4538C110.3 24.4538 111 23.7522 111 22.9505C111 22.1487 111 18.4406 111 18.4406C111 17.6388 110.3 16.9373 109.5 16.9373C108.7 16.9373 108 17.6388 108 18.4406V22.9505Z" fill="#CED3DB"/>
<path d="M107.2 19.1421C106.4 19.1421 105.7 19.8436 105.7 20.6454C105.7 21.4472 106.4 22.1487 107.2 22.1487C108 22.1487 111.8 22.1487 111.8 22.1487C112.6 22.1487 113.3 21.4472 113.3 20.6454C113.3 19.8436 112.6 19.1421 111.8 19.1421H107.2Z" fill="#CED3DB"/>
<path d="M20.8 76.3678C21.6 76.3678 22.3 75.6663 22.3 74.8645C22.3 74.0627 21.6 73.3612 20.8 73.3612C20 73.3612 10.5 73.3612 10.5 73.3612C9.7 73.3612 9 74.0627 9 74.8645C9 75.6663 9.7 76.3678 10.5 76.3678H20.8Z" fill="#CED3DB"/>
<path d="M137.7 43.9967C139 43.9967 140 42.9945 140 41.7918C140 40.5892 139 39.587 137.7 39.587C136.4 39.587 135.4 40.5892 135.4 41.7918C135.4 42.9945 136.5 43.9967 137.7 43.9967Z" fill="#CED3DB"/>
<path d="M2.6999 31.9702C3.9999 31.9702 4.9999 30.968 4.9999 29.7654C4.9999 28.5628 3.9999 27.5605 2.6999 27.5605C1.3999 27.5605 0.399902 28.5628 0.399902 29.7654C0.399902 30.968 1.4999 31.9702 2.6999 31.9702Z" fill="#CED3DB"/>
<path d="M114.3 65.7444C113.5 65.7444 112.8 66.446 112.8 67.2477C112.8 68.0495 114.3 68.7511 114.3 68.7511H116.8C117.6 68.7511 118.3 68.0495 118.3 67.2477C118.3 66.446 117.6 65.7444 116.8 65.7444H114.3Z" fill="#CED3DB"/>
<path d="M122.3 65.7444C121.5 65.7444 120.8 66.446 120.8 67.2477C120.8 68.0495 121.5 68.7511 122.3 68.7511C123.1 68.7511 132.6 68.7511 132.6 68.7511C133.4 68.7511 134.1 68.0495 134.1 67.2477C134.1 66.446 133.4 65.7444 132.6 65.7444H122.3Z" fill="#CED3DB"/>
<path d="M32.5996 16.5363C33.3996 16.5363 34.0996 15.8348 34.0996 15.033C34.0996 14.2313 32.5996 13.5297 32.5996 13.5297H30.0996C29.2996 13.5297 28.5996 14.2313 28.5996 15.033C28.5996 15.8348 29.2996 16.5363 30.0996 16.5363H32.5996Z" fill="#CED3DB"/>
<path d="M24.5998 16.5363C25.3998 16.5363 26.0998 15.8348 26.0998 15.033C26.0998 14.2313 25.3998 13.5297 24.5998 13.5297C23.7998 13.5297 14.2998 13.5297 14.2998 13.5297C13.4998 13.5297 12.7998 14.2313 12.7998 15.033C12.7998 15.8348 13.4998 16.5363 14.2998 16.5363H24.5998Z" fill="#CED3DB"/>
</svg>
