<svg width="105" height="68" viewBox="0 0 105 68" fill="none" xmlns="http://www.w3.org/2000/svg">
<path d="M2.25 9.66081C2.25 10.2599 2.775 10.7842 3.375 10.7842C3.975 10.7842 4.5 10.2599 4.5 9.66081C4.5 9.06169 4.5 6.29077 4.5 6.29077C4.5 5.69165 3.975 5.16742 3.375 5.16742C2.7 5.16742 2.25 5.61676 2.25 6.29077V9.66081Z" fill="#CED3DB"/>
<path d="M1.6499 6.815C1.0499 6.815 0.524902 7.33923 0.524902 7.93835C0.524902 8.53747 1.0499 9.0617 1.6499 9.0617C2.2499 9.0617 5.0999 9.0617 5.0999 9.0617C5.6999 9.0617 6.2249 8.53747 6.2249 7.93835C6.2249 7.33923 5.7749 6.815 5.0999 6.815H1.6499Z" fill="#CED3DB"/>
<path d="M100.5 63.5815C100.5 64.1806 101.025 64.7049 101.625 64.7049C102.225 64.7049 102.75 64.1806 102.75 63.5815C102.75 62.9824 102.75 60.2115 102.75 60.2115C102.75 59.6124 102.225 59.0881 101.625 59.0881C101.025 59.0881 100.5 59.6124 100.5 60.2115V63.5815Z" fill="#CED3DB"/>
<path d="M99.8999 60.7357C99.2999 60.7357 98.7749 61.2599 98.7749 61.8591C98.7749 62.4582 99.2999 62.9824 99.8999 62.9824C100.5 62.9824 103.35 62.9824 103.35 62.9824C103.95 62.9824 104.475 62.4582 104.475 61.8591C104.475 61.2599 103.95 60.7357 103.35 60.7357H99.8999Z" fill="#CED3DB"/>
<path d="M4.7251 65.6035C4.1251 65.6035 3.6001 66.1277 3.6001 66.7269C3.6001 67.326 4.7251 67.8502 4.7251 67.8502H6.6001C7.2001 67.8502 7.7251 67.326 7.7251 66.7269C7.7251 66.1277 7.2001 65.6035 6.6001 65.6035H4.7251Z" fill="#CED3DB"/>
<path d="M10.7251 65.6035C10.1251 65.6035 9.6001 66.1277 9.6001 66.7269C9.6001 67.326 10.1251 67.8502 10.7251 67.8502C11.3251 67.8502 18.4501 67.8502 18.4501 67.8502C19.0501 67.8502 19.5751 67.326 19.5751 66.7269C19.5751 66.1277 19.0501 65.6035 18.4501 65.6035H10.7251Z" fill="#CED3DB"/>
<path d="M97.1997 2.62115C97.7997 2.62115 98.3247 2.09692 98.3247 1.4978C98.3247 0.89868 97.1997 0.374451 97.1997 0.374451H95.3247C94.7247 0.374451 94.1997 0.89868 94.1997 1.4978C94.1997 2.09692 94.7247 2.62115 95.3247 2.62115H97.1997Z" fill="#CED3DB"/>
<path d="M91.2001 2.62115C91.8001 2.62115 92.3251 2.09692 92.3251 1.4978C92.3251 0.89868 91.8001 0.374451 91.2001 0.374451C90.6001 0.374451 83.4751 0.374451 83.4751 0.374451C82.8751 0.374451 82.3501 0.89868 82.3501 1.4978C82.3501 2.09692 82.8751 2.62115 83.4751 2.62115H91.2001Z" fill="#CED3DB"/>
<path d="M87.3 61.6344H23.025C22.425 61.6344 21.9 61.1101 21.9 60.511C21.9 59.9119 22.425 59.3877 23.025 59.3877H87.3C91.05 59.3877 94.125 56.3172 94.125 52.5727V15.5022C94.125 11.7577 91.05 8.68725 87.3 8.68725H17.7C13.95 8.68725 10.875 11.7577 10.875 15.5022V52.5727C10.875 54.5198 11.7 56.3921 13.125 57.6652C13.575 58.1146 13.65 58.7886 13.2 59.2379C12.75 59.6872 12.075 59.7621 11.625 59.3128C9.675 57.5903 8.625 55.119 8.625 52.5727V15.5022C8.625 10.4846 12.675 6.44055 17.7 6.44055H87.225C92.25 6.44055 96.3 10.4846 96.3 15.5022V52.5727C96.375 57.5154 92.325 61.6344 87.3 61.6344Z" fill="#415B9C"/>
<path d="M94.7251 50.8503H36.2251C35.6251 50.8503 35.1001 50.326 35.1001 49.7269C35.1001 49.1278 35.6251 48.6036 36.2251 48.6036H94.7251C95.3251 48.6036 95.8501 49.1278 95.8501 49.7269C95.8501 50.326 95.4001 50.8503 94.7251 50.8503Z" fill="#415B9C"/>
<path d="M20.1 50.8503H9.75C9.15 50.8503 8.625 50.326 8.625 49.7269C8.625 49.1278 9.15 48.6036 9.75 48.6036H20.1C20.7 48.6036 21.225 49.1278 21.225 49.7269C21.225 50.326 20.7 50.8503 20.1 50.8503Z" fill="#415B9C"/>
<path d="M82.7252 41.0397H75.3002C73.7252 41.0397 72.4502 39.7666 72.4502 38.1939V30.7798C72.4502 29.2071 73.7252 27.934 75.3002 27.934H82.7252C84.3002 27.934 85.5752 29.2071 85.5752 30.7798V38.1939C85.5752 39.7666 84.3002 41.0397 82.7252 41.0397ZM75.3002 30.2555C75.0002 30.2555 74.7002 30.4802 74.7002 30.8547V38.1939C74.7002 38.4934 74.9252 38.793 75.3002 38.793H82.7252C83.0252 38.793 83.3252 38.5683 83.3252 38.1939V30.7798C83.3252 30.4802 83.1002 30.1807 82.7252 30.1807H75.3002V30.2555Z" fill="#0285C9"/>
</svg>
