<svg width="47" height="46" viewBox="0 0 47 46" fill="none" xmlns="http://www.w3.org/2000/svg">
<path d="M5.17614 9.76579C6.59093 10.5439 8.16904 10.991 9.78804 11.0725C10.2704 11.1273 10.7588 11.0477 11.1974 10.8428C11.636 10.638 12.0073 10.3161 12.2689 9.91393L13.748 7.15462C14.0105 6.66497 14.2635 5.61551 13.0088 4.092C12.0615 3.01384 10.9082 2.12882 9.61435 1.48706C8.34471 0.801173 6.95056 0.366744 5.51083 0.208371C3.52173 0.0524331 2.78493 0.849275 2.52241 1.3397L1.04248 4.09824C0.0717221 5.91023 2.38759 8.32025 5.17614 9.76579ZM3.92621 2.06637C4.01424 1.90185 4.39097 1.74826 5.02862 1.74826C5.13886 1.74826 5.25704 1.75293 5.38393 1.76307C6.60867 1.90794 7.79352 2.28359 8.87359 2.86945C9.97625 3.41465 10.9616 4.16384 11.7756 5.07597C12.3141 5.73012 12.4473 6.23614 12.3434 6.43028C12.2395 6.62443 11.7383 6.8022 10.8865 6.73436C9.66179 6.5893 8.47699 6.21366 7.39683 5.62799C6.29411 5.08219 5.30858 4.33279 4.49407 3.42069C3.95238 2.76341 3.81835 2.26675 3.92621 2.06637ZM2.44628 4.82569L2.92214 3.93918C3.02749 4.09913 3.14105 4.25371 3.26238 4.40232C4.20956 5.48065 5.36286 6.3657 6.65687 7.00725C7.92623 7.6942 9.32044 8.12944 10.7604 8.28828C10.9341 8.30232 11.0982 8.30855 11.2529 8.30855C11.2846 8.30855 11.31 8.30855 11.3409 8.30388L10.8651 9.18882C10.6049 9.67535 8.527 9.74006 5.91611 8.38652C3.30521 7.03298 2.18534 5.31221 2.44628 4.82569Z" fill="#84888C"/>
<path d="M36.1006 35.9003C34.1662 36.3799 33.7284 37.3686 33.642 37.9152L33.1415 40.9952C33.0527 41.5411 33.155 42.6156 34.8403 43.6628C36.0897 44.3855 37.4713 44.86 38.9066 45.0593C39.5925 45.1675 40.2859 45.2228 40.9806 45.2246C43.3496 45.2246 45.4156 44.5345 45.6702 42.9633L46.1706 39.8833C46.2595 39.3375 46.1564 38.2622 44.4702 37.2158C41.9302 35.8071 38.9606 35.3406 36.1006 35.9011V35.9003ZM44.1046 42.7169C44.0166 43.2628 42.0695 43.9754 39.1548 43.5193C37.9339 43.3493 36.7576 42.9504 35.6898 42.3442C34.9625 41.8927 34.6738 41.4646 34.7103 41.2416L34.8689 40.2514C35.0216 40.3698 35.1804 40.4804 35.3448 40.5827C36.5939 41.3052 37.9752 41.7794 39.4102 41.9785C40.0965 42.0874 40.7906 42.143 41.4858 42.1446C42.4309 42.16 43.372 42.019 44.2696 41.7274L44.1046 42.7169ZM44.6043 39.6361C44.5162 40.182 42.5699 40.8978 39.6553 40.4393C38.4331 40.2704 37.2556 39.8714 36.187 39.2642C35.4629 38.815 35.1711 38.3776 35.206 38.1616C35.2409 37.9456 35.6533 37.6158 36.4876 37.4131C37.0956 37.2735 37.7184 37.2067 38.3427 37.2142C38.95 37.2158 39.5562 37.2643 40.1557 37.3593C41.3768 37.5281 42.5533 37.9268 43.6208 38.5336C44.3513 38.9866 44.6407 39.4131 44.6043 39.6361Z" fill="#84888C"/>
<path d="M28.79 34.8817C27.9398 33.0103 24.581 33.3152 21.7036 34.5792C18.8262 35.8431 16.3549 38.1021 17.2043 39.9711L18.4986 42.8195C18.7239 43.3162 19.3877 44.1396 21.3031 44.1396H21.4046C22.8521 44.0741 24.2725 43.7297 25.585 43.126C28.464 41.862 30.9337 39.6039 30.0843 37.734L29.3602 38.0514L30.0843 37.7333L28.79 34.8817ZM18.6557 39.3356C18.4273 38.8335 19.6582 37.1866 22.3531 36.003C23.4955 35.4683 24.7371 35.169 26.0014 35.1234C26.7565 35.1234 27.2434 35.2895 27.3497 35.518C27.5773 36.0201 26.3464 37.6662 23.6522 38.8498C20.9581 40.0335 18.8841 39.837 18.6557 39.3356ZM24.9418 41.6983C23.8242 42.214 22.6159 42.5131 21.3832 42.5794C20.5219 42.5942 20.0412 42.3829 19.95 42.1833L19.5392 41.2803C19.6859 41.292 19.8366 41.2983 19.9905 41.2983C21.4804 41.2449 22.944 40.8967 24.2939 40.2744C25.8122 39.6546 27.1605 38.6916 28.2292 37.4635L28.6393 38.3664C28.8693 38.8686 27.636 40.5146 24.9418 41.6983Z" fill="#84888C"/>
<path d="M0.0445932 16.7019L6.29823 34.3757C6.36733 34.571 6.51252 34.7314 6.70186 34.8214C6.8912 34.9115 7.10918 34.924 7.30785 34.856L8.55938 34.428L11.0307 37.932C11.1505 38.1018 11.3339 38.2179 11.5407 38.2548C11.5872 38.2635 11.6345 38.2679 11.6818 38.2681C11.8435 38.2679 12.0012 38.2192 12.1339 38.1285L26.616 28.2526L43.2633 22.5607C43.462 22.4927 43.6251 22.35 43.7167 22.1638C43.8083 21.9777 43.8209 21.7634 43.7519 21.5681L37.4974 3.89189C37.4283 3.69657 37.2831 3.53624 37.0938 3.44616C36.9044 3.35609 36.6865 3.34365 36.4878 3.41158L35.2371 3.83964L32.7658 0.335595C32.7064 0.251404 32.6308 0.179533 32.5432 0.12409C32.4555 0.068647 32.3577 0.0307184 32.2552 0.0124713C32.1526 -0.0057759 32.0475 -0.00398391 31.9456 0.0177447C31.8438 0.0394733 31.7474 0.0807126 31.6618 0.139106L17.1796 10.0158L0.532353 15.7077C0.43387 15.7414 0.343114 15.7939 0.265281 15.8621C0.187448 15.9304 0.124065 16.013 0.0787597 16.1053C0.0334547 16.1977 0.00711716 16.2979 0.00125444 16.4003C-0.00460827 16.5026 0.0101189 16.6051 0.0445932 16.7019ZM11.8817 36.403L10.1147 33.8962L21.0333 30.1621L11.8817 36.403ZM31.914 1.8654L33.6818 4.37141L22.7623 8.10938L31.914 1.8654ZM36.2602 5.14021L41.9935 21.342L7.53468 33.1274L1.80291 16.9256L36.2602 5.14021Z" fill="#84888C"/>
<path d="M9.00192 30.9297C9.0905 30.9295 9.17843 30.9148 9.26206 30.886L39.2248 20.6381C39.4235 20.5701 39.5865 20.4274 39.6782 20.2412C39.7698 20.0551 39.7824 19.8408 39.7133 19.6455L35.5432 7.86224C35.4739 7.66707 35.3287 7.50692 35.1394 7.417C34.95 7.32707 34.7321 7.31474 34.5336 7.38271L4.57163 17.6307C4.37296 17.6986 4.20988 17.8413 4.11825 18.0275C4.02663 18.2136 4.01398 18.4279 4.08308 18.6233L8.25243 30.4096C8.30716 30.562 8.40867 30.6938 8.54293 30.787C8.67719 30.8802 8.83758 30.93 9.00192 30.9297ZM34.306 9.11137L37.9542 19.4217L9.48968 29.1574L5.84139 18.847L34.306 9.11137Z" fill="#84888C"/>
<path d="M21.9016 23.0332C22.7423 23.0325 23.5611 22.7691 24.2396 22.2811C24.9182 21.793 25.4214 21.1056 25.6766 20.3181C25.9318 19.5305 25.9258 18.6836 25.6594 17.8997C25.393 17.1157 24.8801 16.4353 24.1947 15.9566C23.5093 15.478 22.6869 15.2258 21.8462 15.2367C21.0055 15.2475 20.1901 15.5207 19.5177 16.0169C18.8452 16.513 18.3506 17.2065 18.1053 17.997C17.8599 18.7876 17.8764 19.6343 18.1526 20.415C18.4217 21.1812 18.9278 21.8456 19.6 22.3151C20.2722 22.7845 21.077 23.0356 21.9016 23.0332ZM21.1164 16.9251C21.5609 16.7732 22.0412 16.7542 22.4966 16.8706C22.9521 16.987 23.3622 17.2335 23.6751 17.579C23.988 17.9246 24.1897 18.3536 24.2546 18.8118C24.3195 19.27 24.2447 19.7368 24.0397 20.1532C23.8348 20.5696 23.5088 20.917 23.103 21.1513C22.6972 21.3856 22.2299 21.4963 21.7601 21.4695C21.2903 21.4427 20.8392 21.2795 20.4637 21.0006C20.0882 20.7218 19.8053 20.3397 19.6507 19.9027C19.5455 19.6128 19.4999 19.3051 19.5168 18.9977C19.5337 18.6903 19.6127 18.3892 19.7491 18.1121C19.8855 17.835 20.0766 17.5873 20.3114 17.3835C20.5461 17.1797 20.8198 17.0239 21.1164 16.9251Z" fill="#84888C"/>
<path d="M37.2762 27.291H35.6899V31.1895H37.2762V27.291Z" fill="#84888C"/>
<path d="M40.4485 25.731H38.8623V32.749H40.4485V25.731Z" fill="#84888C"/>
<path d="M1.58621 8.57764H0V13.2559H1.58621V8.57764Z" fill="#84888C"/>
<path d="M4.75906 10.917H3.17285V12.4761H4.75906V10.917Z" fill="#84888C"/>
</svg>
