<svg width="140" height="91" viewBox="0 0 140 91" fill="none" xmlns="http://www.w3.org/2000/svg">
<path fill-rule="evenodd" clip-rule="evenodd" d="M57.2904 60.5466C54.9594 60.5466 52.8817 61.9035 51.8771 63.9055C51.1683 63.6874 50.4353 63.5753 49.7023 63.5753C45.5183 63.5753 42.1143 66.972 42.1143 71.1471C42.1143 71.983 42.7941 72.6614 43.6319 72.6614C44.4696 72.6614 45.1495 71.983 45.1495 71.1471C45.1495 68.6423 47.1922 66.604 49.7023 66.604C50.5067 66.604 51.2882 66.8266 52.0243 67.2658C52.4614 67.5263 52.9986 67.5505 53.4569 67.3309C53.9152 67.1128 54.2339 66.6797 54.3053 66.177C54.5162 64.6944 55.8001 63.5753 57.2904 63.5753C58.8581 63.5753 60.1481 64.7611 60.2907 66.3314C60.3484 66.975 60.8082 67.5096 61.435 67.6656C62.0633 67.8216 62.7204 67.5641 63.074 67.022C64.4824 64.864 66.8605 63.5753 69.4313 63.5753C72.0022 63.5753 74.3803 64.864 75.7886 67.022C76.1422 67.5641 76.8009 67.8216 77.4276 67.6656C78.0544 67.5096 78.5143 66.975 78.5719 66.3314C78.7146 64.7611 80.0046 63.5753 81.5723 63.5753C83.0625 63.5753 84.3464 64.6944 84.5574 66.177C84.6287 66.6797 84.9474 67.1128 85.4058 67.3309C85.8656 67.5505 86.4028 67.5263 86.8384 67.2658C87.5744 66.8266 88.356 66.604 89.1603 66.604C91.6705 66.604 93.7132 68.6423 93.7132 71.1471C93.7132 71.983 94.3931 72.6614 95.2308 72.6614C96.0685 72.6614 96.7484 71.983 96.7484 71.1471C96.7484 66.972 93.3444 63.5753 89.1603 63.5753C88.4273 63.5753 87.6943 63.6874 86.9856 63.9055C85.9809 61.9035 83.9033 60.5466 81.5723 60.5466C79.4628 60.5466 77.6052 61.6097 76.5216 63.2558C74.5973 61.5279 72.0887 60.5466 69.4313 60.5466C66.774 60.5466 64.2654 61.5279 62.341 63.2558C61.2575 61.6097 59.3999 60.5466 57.2904 60.5466Z" fill="#CED3DB"/>
<path fill-rule="evenodd" clip-rule="evenodd" d="M51.2197 52.9749C51.2197 53.8109 51.8996 54.4893 52.7373 54.4893H57.2902V56.0036C57.2902 56.8396 57.9701 57.518 58.8078 57.518C59.6455 57.518 60.3254 56.8396 60.3254 56.0036V54.4893H63.3606C64.1984 54.4893 64.8783 53.8109 64.8783 52.9749C64.8783 52.139 64.1984 51.4606 63.3606 51.4606H54.255V49.9463C54.255 45.4835 55.7862 43.6132 57.407 41.6325C58.8412 39.8789 60.3254 38.0647 60.3254 34.8028V19.6593C60.3254 14.3727 62.8189 11.7453 63.0086 11.5424L69.4311 3.8525L75.9386 11.6363C76.0434 11.7453 78.5368 14.3727 78.5368 19.6593V34.8028C78.5368 38.0647 80.021 39.8789 81.4552 41.6325C83.076 43.6132 84.6073 45.4835 84.6073 49.9463V51.4606H75.5016C74.6638 51.4606 73.984 52.139 73.984 52.9749C73.984 53.8109 74.6638 54.4893 75.5016 54.4893H78.5368V56.0036C78.5368 56.8396 79.2167 57.518 80.0544 57.518C80.8921 57.518 81.572 56.8396 81.572 56.0036V54.4893H86.1249C86.9626 54.4893 87.6425 53.8109 87.6425 52.9749V49.9463C87.6425 44.4037 85.5163 41.8051 83.8075 39.7168C82.5099 38.1313 81.572 36.9849 81.572 34.8028V19.6593C81.572 13.0507 78.2348 9.64489 78.1847 9.604L70.5966 0.517907C70.0199 -0.172636 68.8423 -0.172636 68.2656 0.517907L60.7701 9.50254C60.6274 9.64489 57.2902 13.0507 57.2902 19.6593V34.8028C57.2902 36.9849 56.3523 38.1313 55.0547 39.7168C53.3459 41.8051 51.2197 44.4037 51.2197 49.9463V52.9749Z" fill="#0285C9"/>
<path fill-rule="evenodd" clip-rule="evenodd" d="M68.293 43.5375V55.6523C68.293 56.4883 68.9729 57.1667 69.8106 57.1667C70.6483 57.1667 71.3282 56.4883 71.3282 55.6523V43.5375C71.3282 42.7016 70.6483 42.0232 69.8106 42.0232C68.9729 42.0232 68.293 42.7016 68.293 43.5375Z" fill="#0285C9"/>
<path fill-rule="evenodd" clip-rule="evenodd" d="M7.96777 24.2935C7.96777 25.1294 8.64766 25.8078 9.48539 25.8078C10.3231 25.8078 11.003 25.1294 11.003 24.2935C11.003 23.4576 11.003 19.6865 11.003 19.6865C11.003 18.8505 10.3231 18.1721 9.48539 18.1721C8.64766 18.1721 7.96777 18.8505 7.96777 19.6865V24.2935Z" fill="#CED3DB"/>
<path fill-rule="evenodd" clip-rule="evenodd" d="M127.479 59.0322C127.479 59.8682 128.159 60.5466 128.997 60.5466C129.835 60.5466 130.515 59.8682 130.515 59.0322C130.515 58.1963 130.515 54.4252 130.515 54.4252C130.515 53.5893 129.835 52.9109 128.997 52.9109C128.159 52.9109 127.479 53.5893 127.479 54.4252V59.0322Z" fill="#CED3DB"/>
<path fill-rule="evenodd" clip-rule="evenodd" d="M7.2087 20.4436C6.37098 20.4436 5.69109 21.122 5.69109 21.958C5.69109 22.7939 6.37098 23.4723 7.2087 23.4723C8.04643 23.4723 11.8256 23.4723 11.8256 23.4723C12.6634 23.4723 13.3433 22.7939 13.3433 21.958C13.3433 21.122 12.6634 20.4436 11.8256 20.4436H7.2087Z" fill="#CED3DB"/>
<path fill-rule="evenodd" clip-rule="evenodd" d="M1.51765 44.2947C0.679922 44.2947 3.24249e-05 44.9731 3.24249e-05 45.809C3.24249e-05 46.6449 0.679922 47.3234 1.51765 47.3234C2.35537 47.3234 11.8256 47.3234 11.8256 47.3234C12.6634 47.3234 13.3433 46.6449 13.3433 45.809C13.3433 44.9731 12.6634 44.2947 11.8256 44.2947H1.51765Z" fill="#CED3DB"/>
<path fill-rule="evenodd" clip-rule="evenodd" d="M100.32 13.7864C99.4825 13.7864 98.8026 14.4648 98.8026 15.3007C98.8026 16.1367 100.32 16.8151 100.32 16.8151H102.794C103.632 16.8151 104.312 16.1367 104.312 15.3007C104.312 14.4648 103.632 13.7864 102.794 13.7864H100.32Z" fill="#CED3DB"/>
<path d="M137.724 35.2086C138.981 35.2086 140 34.1916 140 32.937C140 31.6825 138.981 30.6655 137.724 30.6655C136.466 30.6655 135.447 31.6825 135.447 32.937C135.447 34.1916 136.466 35.2086 137.724 35.2086Z" fill="#CED3DB"/>
<path fill-rule="evenodd" clip-rule="evenodd" d="M108.288 13.7864C107.45 13.7864 106.77 14.4648 106.77 15.3007C106.77 16.1366 107.45 16.8151 108.288 16.8151C109.125 16.8151 118.596 16.8151 118.596 16.8151C119.433 16.8151 120.113 16.1366 120.113 15.3007C120.113 14.4648 119.433 13.7864 118.596 13.7864H108.288Z" fill="#CED3DB"/>
<path fill-rule="evenodd" clip-rule="evenodd" d="M126.721 55.1826H131.338C132.175 55.1826 132.855 55.861 132.855 56.697C132.855 57.5329 132.175 58.2113 131.338 58.2113C131.338 58.2113 127.558 58.2113 126.721 58.2113C125.883 58.2113 125.203 57.5329 125.203 56.697C125.203 55.861 125.883 55.1826 126.721 55.1826Z" fill="#CED3DB"/>
<path fill-rule="evenodd" clip-rule="evenodd" d="M69.4313 30.2598C66.0834 30.2598 63.3608 27.5431 63.3608 24.2024C63.3608 20.8618 66.0834 18.145 69.4313 18.145C72.7792 18.145 75.5018 20.8618 75.5018 24.2024C75.5018 27.5431 72.7792 30.2598 69.4313 30.2598ZM72.4665 24.2024C72.4665 22.5321 71.1052 21.1737 69.4313 21.1737C67.7574 21.1737 66.3961 22.5321 66.3961 24.2024C66.3961 25.8727 67.7574 27.2311 69.4313 27.2311C71.1052 27.2311 72.4665 25.8727 72.4665 24.2024Z" fill="#0285C9"/>
<path fill-rule="evenodd" clip-rule="evenodd" d="M28.4556 78.7189C29.2933 78.7189 29.9732 78.0405 29.9732 77.2046V31.7741C29.9732 29.5662 32.3134 27.2311 34.5261 27.2311H52.7374C53.5752 27.2311 54.2551 26.5527 54.2551 25.7167C54.2551 24.8808 53.5752 24.2024 52.7374 24.2024H34.5261C30.6258 24.2024 26.938 27.8823 26.938 31.7741V77.2046C26.938 78.0405 27.6179 78.7189 28.4556 78.7189Z" fill="#415B9C"/>
<path fill-rule="evenodd" clip-rule="evenodd" d="M113.442 75.6903H111.924V31.7741C111.924 27.8823 108.236 24.2024 104.336 24.2024H86.1246C85.2868 24.2024 84.607 24.8808 84.607 25.7167C84.607 26.5527 85.2868 27.2311 86.1246 27.2311H104.336C106.549 27.2311 108.889 29.5662 108.889 31.7741V77.2046C108.889 78.0405 109.569 78.7189 110.406 78.7189H111.924V83.262C111.924 85.4699 109.584 87.805 107.371 87.805H31.4904C29.7861 87.805 28.0075 86.4209 27.279 84.7763H107.371C108.209 84.7763 108.889 84.0979 108.889 83.262C108.889 82.4261 108.209 81.7476 107.371 81.7476H25.42C24.5822 81.7476 23.9023 82.4261 23.9023 83.262C23.9023 87.1539 27.5901 90.8337 31.4904 90.8337H107.371C111.271 90.8337 114.959 87.1539 114.959 83.262V77.2046C114.959 76.3687 114.279 75.6903 113.442 75.6903Z" fill="#415B9C"/>
<path fill-rule="evenodd" clip-rule="evenodd" d="M52.7373 33.2885H39.0788C38.1029 33.2885 36.2211 34.347 36.0344 34.88L36.0435 75.6902H102.819V34.8028C102.819 34.1229 101.982 33.2885 101.301 33.2885H86.1248C85.2871 33.2885 84.6072 32.61 84.6072 31.7741C84.6072 30.9382 85.2871 30.2598 86.1248 30.2598H101.301C103.641 30.2598 105.854 32.4677 105.854 34.8028V77.2046C105.854 78.0405 105.174 78.7189 104.336 78.7189H34.5259C33.6882 78.7189 33.0083 78.0405 33.0083 77.2046V34.8028C33.0083 32.1784 37.0011 30.2598 39.0788 30.2598H52.7373C53.575 30.2598 54.2549 30.9382 54.2549 31.7741C54.2549 32.61 53.575 33.2885 52.7373 33.2885Z" fill="#415B9C"/>
</svg>
